<?xml version="1.0" encoding="UTF-8"?>
<!DOCTYPE svg PUBLIC "-//W3C//DTD SVG 1.1//EN" "http://www.w3.org/Graphics/SVG/1.1/DTD/svg11.dtd">
<svg xmlns="http://www.w3.org/2000/svg" version="1.1" width="64px" height="64px" style="shape-rendering:geometricPrecision; text-rendering:geometricPrecision; image-rendering:optimizeQuality; fill-rule:evenodd; clip-rule:evenodd" xmlns:xlink="http://www.w3.org/1999/xlink">
<g><path style="opacity:0.72" fill="#020202" d="M 54.5,15.5 C 56.8294,19.1549 58.1628,23.1549 58.5,27.5C 59.5,27.5 60.5,27.5 61.5,27.5C 61.5,30.1667 61.5,32.8333 61.5,35.5C 60.5,35.5 59.5,35.5 58.5,35.5C 57.8632,41.0982 55.8632,46.0982 52.5,50.5C 47.7493,55.0413 42.0826,57.7079 35.5,58.5C 35.5,59.5 35.5,60.5 35.5,61.5C 32.8333,61.5 30.1667,61.5 27.5,61.5C 27.5,60.5 27.5,59.5 27.5,58.5C 23.6576,58.1075 19.9909,57.1075 16.5,55.5C 9.63657,50.6186 5.63657,43.9519 4.5,35.5C 3.5,35.5 2.5,35.5 1.5,35.5C 1.5,32.8333 1.5,30.1667 1.5,27.5C 2.5,27.5 3.5,27.5 4.5,27.5C 5.42006,19.0849 9.42006,12.5849 16.5,8C 11.9881,7.6047 7.65482,7.93803 3.5,9C 1.06538,5.63207 1.89872,3.13207 6,1.5C 12.8309,4.20616 19.9976,5.20616 27.5,4.5C 27.5,3.5 27.5,2.5 27.5,1.5C 30.1667,1.5 32.8333,1.5 35.5,1.5C 35.5,2.5 35.5,3.5 35.5,4.5C 41.1764,4.66609 46.8431,4.49942 52.5,4C 56.0111,0.379607 58.6778,0.879607 60.5,5.5C 60.5021,8.15945 59.1687,9.49278 56.5,9.5C 53.389,7.81547 50.0556,7.31547 46.5,8C 49.6922,10.0282 52.3589,12.5282 54.5,15.5 Z M 26.5,7.5 C 40.6366,6.29645 50.3033,12.7965 55.5,27C 56.5471,40.9393 50.0471,50.4393 36,55.5C 22.0607,56.5471 12.5607,50.0471 7.5,36C 6.51822,22.2353 12.8516,12.7353 26.5,7.5 Z"/></g>
<g><path style="opacity:1" fill="#d6deec" d="M 30.5,4.5 C 32.337,4.63945 32.6704,5.30612 31.5,6.5C 30.7025,6.04311 30.3691,5.37644 30.5,4.5 Z"/></g>
<g><path style="opacity:1" fill="#6f727a" d="M 5.5,4.5 C 6.37644,4.36912 7.04311,4.70245 7.5,5.5C 5.19157,6.87342 4.52491,6.54009 5.5,4.5 Z"/></g>
<g><path style="opacity:1" fill="#b9bfcc" d="M 55.5,4.5 C 57.337,4.63945 57.6704,5.30612 56.5,6.5C 55.7025,6.04311 55.3691,5.37644 55.5,4.5 Z"/></g>
<g><path style="opacity:0.517" fill="#000000" d="M 4.5,12.5 C 5.5,12.5 6.5,12.5 7.5,12.5C 7.5,13.5 7.5,14.5 7.5,15.5C 6.5,15.5 5.5,15.5 4.5,15.5C 4.5,14.5 4.5,13.5 4.5,12.5 Z"/></g>
<g><path style="opacity:0.465" fill="#000000" d="M 54.5,15.5 C 55.2032,12.1394 56.5365,11.8061 58.5,14.5C 57.3112,15.4287 55.9778,15.762 54.5,15.5 Z"/></g>
<g><path style="opacity:0.738" fill="#060202" d="M 26.5,13.5 C 30.1064,13.2108 33.6064,13.5442 37,14.5C 40.4016,24.2049 43.9016,33.8715 47.5,43.5C 47.2907,44.086 46.9574,44.586 46.5,45C 43.5,45.6667 40.5,45.6667 37.5,45C 36.6005,42.8083 35.6005,40.6416 34.5,38.5C 32.3052,37.2309 30.1385,37.2309 28,38.5C 27.4427,40.6147 26.6094,42.6147 25.5,44.5C 22.2317,45.487 18.8984,45.8204 15.5,45.5C 18.3694,34.5585 22.0361,23.8918 26.5,13.5 Z"/></g>
<g><path style="opacity:0.638" fill="#000000" d="M 41.5,13.5 C 47.2173,15.3937 50.7173,19.3937 52,25.5C 52.4955,27.4727 52.6621,29.4727 52.5,31.5C 51.5,31.5 50.5,31.5 49.5,31.5C 49.2823,25.7313 46.949,21.0646 42.5,17.5C 41.5713,16.3112 41.238,14.9778 41.5,13.5 Z"/></g>
<g><path style="opacity:1" fill="#dc6970" d="M 27.5,16.5 C 30.1194,16.2317 32.6194,16.565 35,17.5C 38.141,25.7568 40.9743,34.0902 43.5,42.5C 42.0222,42.762 40.6888,42.4287 39.5,41.5C 38.3995,39.3584 37.3995,37.1917 36.5,35C 33.1667,34.3333 29.8333,34.3333 26.5,35C 25.2135,37.0223 24.2135,39.1889 23.5,41.5C 22.3112,42.4287 20.9778,42.762 19.5,42.5C 21.9685,33.762 24.6351,25.0953 27.5,16.5 Z"/></g>
<g><path style="opacity:0.941" fill="#130909" d="M 30.5,21.5 C 31.4959,21.4142 32.3292,21.7476 33,22.5C 33.9533,25.4318 34.4533,28.4318 34.5,31.5C 32.1667,31.5 29.8333,31.5 27.5,31.5C 28.1009,28.0321 29.1009,24.6988 30.5,21.5 Z"/></g>
<g><path style="opacity:1" fill="#d6deec" d="M 4.5,30.5 C 6.33702,30.6395 6.67036,31.3061 5.5,32.5C 4.70245,32.0431 4.36912,31.3764 4.5,30.5 Z"/></g>
<g><path style="opacity:1" fill="#d6deec" d="M 56.5,30.5 C 58.337,30.6395 58.6704,31.3061 57.5,32.5C 56.7025,32.0431 56.3691,31.3764 56.5,30.5 Z"/></g>
<g><path style="opacity:0.648" fill="#000000" d="M 20.5,47.5 C 24.1667,48.1667 27.8333,48.8333 31.5,49.5C 31.5,50.5 31.5,51.5 31.5,52.5C 28.3926,52.6488 25.3926,52.1488 22.5,51C 21.0267,50.2904 20.3601,49.1238 20.5,47.5 Z"/></g>
<g><path style="opacity:0.702" fill="#040405" d="M 52.5,50.5 C 58.9365,46.7025 61.2698,48.3692 59.5,55.5C 54.7024,57.3749 52.369,55.7083 52.5,50.5 Z"/></g>
<g><path style="opacity:0.684" fill="#060606" d="M 4.5,49.5 C 10.0159,49.4734 11.3492,51.64 8.5,56C 3.57049,56.427 2.23716,54.2604 4.5,49.5 Z"/></g>
<g><path style="opacity:1" fill="#ccd2e0" d="M 55.5,51.5 C 57.337,51.6395 57.6704,52.3061 56.5,53.5C 55.7025,53.0431 55.3691,52.3764 55.5,51.5 Z"/></g>
<g><path style="opacity:0.464" fill="#000000" d="M 16.5,55.5 C 15.5,60.8333 14.5,60.8333 13.5,55.5C 14.5,55.5 15.5,55.5 16.5,55.5 Z"/></g>
<g><path style="opacity:1" fill="#d6deec" d="M 30.5,56.5 C 32.337,56.6395 32.6704,57.3061 31.5,58.5C 30.7025,58.0431 30.3691,57.3764 30.5,56.5 Z"/></g>
</svg>
